<svg width="48" height="48" viewBox="0 0 48 48" fill="none" xmlns="http://www.w3.org/2000/svg">
<path d="M24 0.09375C19.2718 0.09375 14.6498 1.49583 10.7184 4.12268C6.78705 6.74953 3.72292 10.4832 1.91352 14.8515C0.104108 19.2198 -0.369315 24.0265 0.553113 28.6639C1.47554 33.3012 3.75239 37.5609 7.09574 40.9043C10.4391 44.2476 14.6988 46.5245 19.3361 47.4469C23.9735 48.3693 28.7802 47.8959 33.1485 46.0865C37.5168 44.2771 41.2505 41.213 43.8773 37.2816C46.5042 33.3502 47.9063 28.7282 47.9063 24C47.8939 17.6635 45.3712 11.59 40.8906 7.10941C36.41 2.6288 30.3365 0.106138 24 0.09375ZM24 45.0938C19.8281 45.0938 15.7498 43.8566 12.281 41.5388C8.8121 39.221 6.10846 35.9266 4.51193 32.0722C2.91539 28.2178 2.49766 23.9766 3.31157 19.8848C4.12548 15.793 6.13446 12.0345 9.08448 9.08447C12.0345 6.13445 15.793 4.12547 19.8848 3.31156C23.9766 2.49765 28.2179 2.91538 32.0722 4.51192C35.9266 6.10845 39.221 8.81209 41.5388 12.2809C43.8566 15.7498 45.0938 19.8281 45.0938 24C45.0876 29.5925 42.8632 34.9542 38.9087 38.9087C34.9542 42.8632 29.5925 45.0875 24 45.0938ZM32.2734 22.8281L21.0234 15.3281C20.8116 15.1886 20.566 15.109 20.3126 15.0977C20.0592 15.0864 19.8075 15.1439 19.5841 15.264C19.3607 15.3841 19.1739 15.5624 19.0436 15.78C18.9133 15.9976 18.8442 16.2464 18.8438 16.5V31.5C18.844 31.7557 18.914 32.0064 19.0462 32.2253C19.1783 32.4442 19.3676 32.6229 19.5938 32.7422C19.8158 32.862 20.0664 32.9188 20.3184 32.9064C20.5704 32.894 20.8142 32.8129 21.0234 32.6719L32.2734 25.1719C32.4668 25.0436 32.6255 24.8695 32.7352 24.665C32.8449 24.4605 32.9024 24.2321 32.9024 24C32.9024 23.7679 32.8449 23.5395 32.7352 23.335C32.6255 23.1305 32.4668 22.9564 32.2734 22.8281ZM21.6563 28.875V19.125L28.9688 24L21.6563 28.875Z" fill="#60C9FD"/>
</svg>
